# xmcd
#
# Track frame offsets: 
#        150
#        17724
#        33881
#        51252
#        68073
#        88947
#        105844
#        122791
#        156368
#        173953
#        211166
#        227795
#        243119
#        267758
#
# Disc length: 3807 seconds
#
# Revision: 0
# Processed by: cddbd v1.5.2PL0 Copyright (c) Steve Scherf et al.
# Submitted via: ExactAudioCopy v1.0b3
#
DISCID=b20edd0e
DTITLE=Various Artist - Trance Decade - CD 2
DYEAR=1900
DGENRE=
TTITLE0=Groove(A)Holics - Somewhere Over The Rainbow 2002 (Radio Mix)
TTITLE1=Gladiators - Now We Are Free (Sam Plings Trance Radio Mix)
TTITLE2=Terence - Maniac 2001 (Radio Edit)
TTITLE3=Zymotix - Rachel In Trance (Rachel's Song) (Short Cut)
TTITLE4=Equinox - Kayama (Progressive Radio)
TTITLE5=DJ Walker - Deeper Love (Radio Edit)
TTITLE6=Massy J. - Acid Symphony (Single Cut)
TTITLE7=Icebird Project - A Little Smile (Club Fantastique Mix)
TTITLE8=K-Risma - Let Your Mind Flow (Radio Edit)
TTITLE9=Samovar - Stay (Xtd Mix)
TTITLE10=Synthex - Come Into My World (Single Cut)
TTITLE11=Midiman Vs. Foggy - This Is How My Drummer Drums (Radio Edit)
TTITLE12=Unit - Who Do You Love (Adventure Dream Mix)
TTITLE13=Altri Mondi - Sarcasmo (Single Mix)
EXTD=
EXTT0=
EXTT1=
EXTT2=
EXTT3=
EXTT4=
EXTT5=
EXTT6=
EXTT7=
EXTT8=
EXTT9=
EXTT10=
EXTT11=
EXTT12=
EXTT13=
PLAYORDER=
